<?xml version="1.0" encoding="utf-8"?>
<!-- Generator: Adobe Illustrator 19.0.0, SVG Export Plug-In . SVG Version: 6.00 Build 0)  -->
<svg version="1.1" id="book" xmlns="http://www.w3.org/2000/svg" xmlns:xlink="http://www.w3.org/1999/xlink" x="0px" y="0px"
	 viewBox="0 0 48 48" style="enable-background:new 0 0 48 48;" xml:space="preserve">
<path id="XMLID_125_" d="M42.6,5.1c-5.4,3.2-10.3,7-15,10.9c-2.9,2.4-6,4.7-8.5,7.5c-0.9,1.1-1.9,2.1-2.5,3.6
	c-0.1,0.2,0.1,0.5,0.4,0.5c2,0.6,4.2,2.5,4.7,4.9c0.1,0.2,0.3,0.4,0.5,0.4c1.7-0.5,2.4-1.5,3.8-2.7c2.7-2.4,5.7-6.7,8-9.5
	c3.5-4.5,7-9.1,10-14.1C44.4,5.8,43.3,4.7,42.6,5.1z"/>
<path id="XMLID_122_" d="M19.3,36c0,3.2-1.8,5.7-5.2,6.8c-1.5,0.5-5.5,1.5-10.1,0.9c2.7-2.3,3.5-4.6,3.9-7.8
	c0.3-3.2,2.6-5.8,5.7-5.8S19.3,32.9,19.3,36z"/>
</svg>
