<?xml version="1.0" encoding="utf-8"?>
<!-- Generator: Adobe Illustrator 19.0.0, SVG Export Plug-In . SVG Version: 6.00 Build 0)  -->
<svg version="1.1" id="brush" xmlns="http://www.w3.org/2000/svg" xmlns:xlink="http://www.w3.org/1999/xlink" x="0px" y="0px"
	 viewBox="0 0 24 24" style="enable-background:new 0 0 24 24;" xml:space="preserve">
<path id="XMLID_75_" d="M21.3,3c-2.6,1.5-5,3.4-7.3,5.3c-1.4,1.2-2.8,2.3-4,3.7c-0.4,0.5-1,1-1.3,1.6c0,0.1,0.1,0.2,0.2,0.3
	c1,0.3,2,1.2,2.3,2.4c0,0.1,0.2,0.2,0.3,0.2c1-0.4,1.6-1.3,2.2-1.9c1.3-1.2,2.4-2.6,3.5-4c1.7-2.2,3.4-4.4,4.9-6.8
	C22.1,3.4,21.6,2.9,21.3,3z"/>
<path id="XMLID_72_" d="M9.9,18c0,1.5-0.9,2.8-2.5,3.3c-0.7,0.2-2.7,0.7-4.9,0.4c1.3-1.1,1.7-2.2,1.9-3.8c0.2-1.5,1.2-2.8,2.8-2.8
	S9.9,16.5,9.9,18z"/>
</svg>
