<?xml version="1.0" encoding="utf-8"?>
<!-- Generator: Adobe Illustrator 19.0.0, SVG Export Plug-In . SVG Version: 6.00 Build 0)  -->
<svg version="1.1" id="book" xmlns="http://www.w3.org/2000/svg" xmlns:xlink="http://www.w3.org/1999/xlink" x="0px" y="0px"
	 viewBox="0 0 24 24" style="enable-background:new 0 0 24 24;" xml:space="preserve">
<path id="XMLID_71_" d="M17.9,2H6.6C5.7,2,5,2.7,5,3.6v15.8C5,20.3,5.7,21,6.6,21H8v1l1.5-1l1.5,1v-1h6.9c0.6,0,1.1-0.5,1.1-1.1V3.1
	C19,2.5,18.5,2,17.9,2z M8,4h8v3H8V4z M17,20h-6v-2H8v2H7c-0.5,0-1-0.5-1-1v-1.1C6,17.4,6.4,17,6.9,17H17V20z"/>
</svg>
