<?xml version="1.0" encoding="utf-8"?>
<!-- Generator: Adobe Illustrator 19.0.0, SVG Export Plug-In . SVG Version: 6.00 Build 0)  -->
<svg version="1.1" id="book" xmlns="http://www.w3.org/2000/svg" xmlns:xlink="http://www.w3.org/1999/xlink" x="0px" y="0px"
	 viewBox="0 0 48 48" style="enable-background:new 0 0 48 48;" xml:space="preserve">
<path id="XMLID_122_" d="M35.6,4.2H14.3c-1.8,0-3.2,1.4-3.2,3.2V38c0,1.8,1.4,3.2,3.2,3.2h1.5V44l2.3-1.3l2.3,1.3v-2.8h15.2
	c1.2,0,2.2-1,2.2-2.2V6.4C37.9,5.2,36.9,4.2,35.6,4.2z M16.9,8.9l17.1,0V14l-17.1,0V8.9z M35,39.1C35,39.1,35,39.2,35,39.1
	l-14.6,0.1v-2.6h-4.6v2.6h-0.9c-1,0-1.8-0.8-1.8-1.8v-0.8c0-1,0.8-1.8,1.8-1.8h20c0,0,0.1,0,0.1,0.1V39.1z"/>
</svg>
