<?xml version="1.0" encoding="utf-8"?>
<!-- Generator: Adobe Illustrator 19.0.0, SVG Export Plug-In . SVG Version: 6.00 Build 0)  -->
<svg version="1.1" id="arrow" xmlns="http://www.w3.org/2000/svg" xmlns:xlink="http://www.w3.org/1999/xlink" x="0px" y="0px"
	 viewBox="0 0 18 18" style="enable-background:new 0 0 18 18;" xml:space="preserve">
<path id="XMLID_1_" d="M16.4,1.5c-2.2,1.3-4.1,2.8-6,4.3C9.3,6.7,8,7.6,7,8.7c-0.3,0.4-0.7,0.8-1,1.4c0,0.1,0,0.2,0.1,0.2
	c0.8,0.2,1.7,1,1.9,1.9c0,0.1,0.1,0.2,0.2,0.1c0.7-0.2,1-0.6,1.5-1.1c1.1-1,2.3-2.6,3.2-3.8c1.4-1.8,2.8-3.6,4-5.6
	C17.1,1.8,16.7,1.3,16.4,1.5z"/>
<path id="XMLID_6_" d="M7.1,13.7C7.1,15,6.4,16,5,16.4c-0.6,0.2-2.2,0.6-4,0.4c1.1-0.9,1.4-1.8,1.5-3.1c0.1-1.3,1-2.3,2.3-2.3
	S7.1,12.5,7.1,13.7z"/>
</svg>
