<?xml version="1.0" encoding="utf-8"?>
<!-- Generator: Adobe Illustrator 19.0.0, SVG Export Plug-In . SVG Version: 6.00 Build 0)  -->
<svg version="1.1" id="book" xmlns="http://www.w3.org/2000/svg" xmlns:xlink="http://www.w3.org/1999/xlink" x="0px" y="0px"
	 viewBox="0 0 18 18" style="enable-background:new 0 0 18 18;" xml:space="preserve">
<path id="XMLID_11_" d="M12.9,1.1H4.5c-0.7,0-1.3,0.6-1.3,1.3v12.1c0,0.7,0.6,1.3,1.3,1.3h0.6v1.1L6,16.4l0.9,0.5v-1.1h6
	c0.5,0,0.9-0.4,0.9-0.9V2C13.8,1.5,13.4,1.1,12.9,1.1z M5.5,3h6.6v2H5.5V3z M12.7,14.9C12.7,15,12.7,15,12.7,14.9l-5.8,0v-1H5.1v1
	H4.7C4.3,15,4,14.7,4,14.3v-0.3c0-0.4,0.3-0.7,0.7-0.7h7.9c0,0,0,0,0,0V14.9z"/>
</svg>
