<?xml version="1.0" encoding="utf-8"?>
<!-- Generator: Adobe Illustrator 19.0.0, SVG Export Plug-In . SVG Version: 6.00 Build 0)  -->
<svg version="1.1" id="eye-hidden" xmlns="http://www.w3.org/2000/svg" xmlns:xlink="http://www.w3.org/1999/xlink" x="0px" y="0px"
	 viewBox="0 0 18 18" style="enable-background:new 0 0 18 18;" xml:space="preserve">
<style type="text/css">
	.st0{fill:#231F20;}
</style>
<g id="XMLID_8_">
	<path id="XMLID_6_" class="st0" d="M14.3,6l-2.3,2.3c0.1,0.2,0.1,0.5,0.1,0.7c0,1.8-1.4,3.2-3.2,3.2c-0.3,0-0.5,0-0.7-0.1l-1.5,1.5
		c0.7,0.2,1.5,0.3,2.2,0.3c3.4,0,6.3-2,7.9-4.9C16.3,7.8,15.4,6.8,14.3,6z"/>
	<path id="XMLID_5_" class="st0" d="M3.6,12l2.3-2.3C5.9,9.5,5.8,9.3,5.8,9c0-1.8,1.4-3.2,3.2-3.2c0.2,0,0.5,0,0.7,0.1l1.5-1.5
		C10.5,4.2,9.8,4.1,9,4.1c-3.4,0-6.3,2-7.9,4.9C1.7,10.2,2.6,11.2,3.6,12z"/>
	<path id="XMLID_1_" class="st0" d="M15,3.9L3.9,15.1c-0.3,0.3-0.7,0.3-1,0l0,0c-0.3-0.3-0.3-0.7,0-1L14.1,2.9c0.3-0.3,0.7-0.3,1,0
		l0,0C15.3,3.2,15.3,3.6,15,3.9z"/>
</g>
</svg>
