<?xml version="1.0" encoding="utf-8"?>
<!-- Generator: Adobe Illustrator 19.0.0, SVG Export Plug-In . SVG Version: 6.00 Build 0)  -->
<svg version="1.1" id="eye-hidden" xmlns="http://www.w3.org/2000/svg" xmlns:xlink="http://www.w3.org/1999/xlink" x="0px" y="0px"
	 viewBox="0 0 48 48" style="enable-background:new 0 0 48 48;" xml:space="preserve">
<style type="text/css">
	.st0{fill:#231F20;}
</style>
<g id="XMLID_122_">
	<path id="XMLID_127_" class="st0" d="M37.4,16.5l-5.7,5.7c0.1,0.6,0.2,1.2,0.2,1.9c0,4.4-3.6,8-8,8c-0.6,0-1.3-0.1-1.9-0.2
		l-3.8,3.8c1.8,0.5,3.7,0.8,5.6,0.8c8.4,0,15.8-4.9,19.9-12.3C42.2,21,40,18.5,37.4,16.5z"/>
	<path id="XMLID_126_" class="st0" d="M10.5,31.5l5.7-5.7C16.1,25.2,16,24.6,16,24c0-4.4,3.6-8,8-8c0.6,0,1.2,0.1,1.8,0.2l3.8-3.8
		c-1.8-0.5-3.6-0.8-5.6-0.8c-8.4,0-15.8,4.9-19.9,12.3C5.8,27,8,29.5,10.5,31.5z"/>
	<path id="XMLID_125_" class="st0" d="M39.3,11.1L11.1,39.3c-0.6,0.6-1.6,0.6-2.2,0l-0.2-0.2c-0.6-0.6-0.6-1.6,0-2.2L36.9,8.7
		c0.6-0.6,1.6-0.6,2.2,0l0.2,0.2C39.9,9.5,39.9,10.5,39.3,11.1z"/>
</g>
</svg>
