<?xml version="1.0" encoding="utf-8"?>
<!-- Generator: Adobe Illustrator 19.0.0, SVG Export Plug-In . SVG Version: 6.00 Build 0)  -->
<svg version="1.1" id="eye_-_hidden" xmlns="http://www.w3.org/2000/svg" xmlns:xlink="http://www.w3.org/1999/xlink" x="0px"
	 y="0px" viewBox="0 0 24 24" style="enable-background:new 0 0 24 24;" xml:space="preserve">
<style type="text/css">
	.st0{fill:#231F20;}
</style>
<path id="XMLID_75_" class="st0" d="M18.7,8.2l-2.9,2.9c0.1,0.3,0.1,0.6,0.1,0.9c0,2.2-1.8,4-4,4c-0.3,0-0.6,0-0.9-0.1l-1.9,1.9
	c0.9,0.2,1.9,0.4,2.8,0.4c4.2,0,7.9-2.5,10-6.2C21.2,10.5,20,9.2,18.7,8.2z"/>
<path id="XMLID_74_" class="st0" d="M5.2,15.8l2.9-2.9C8,12.6,8,12.3,8,12c0-2.2,1.8-4,4-4c0.3,0,0.6,0,0.9,0.1l1.9-1.9
	C13.9,6,13,5.9,12,5.9C7.8,5.9,4.1,8.3,2,12C2.8,13.5,4,14.8,5.2,15.8z"/>
<path id="XMLID_72_" class="st0" d="M19.7,5.6L5.5,19.7c-0.3,0.3-0.8,0.3-1.1,0l-0.1-0.1c-0.3-0.3-0.3-0.8,0-1.1L18.5,4.3
	c0.3-0.3,0.8-0.3,1.1,0l0.1,0.1C20,4.7,20,5.2,19.7,5.6z"/>
</svg>
