<?xml version="1.0" encoding="utf-8"?>
<!-- Generator: Adobe Illustrator 19.0.0, SVG Export Plug-In . SVG Version: 6.00 Build 0)  -->
<svg version="1.1" id="music" xmlns="http://www.w3.org/2000/svg" xmlns:xlink="http://www.w3.org/1999/xlink" x="0px" y="0px"
	 viewBox="0 0 24 24" style="enable-background:new 0 0 24 24;" xml:space="preserve">
<path id="XMLID_72_" d="M8,5.1v12.2c-0.7-0.3-2-0.4-2.9-0.2c-1.8,0.5-2.9,1.9-2.6,3.2c0.3,1.3,2.1,2,3.8,1.5
	c1.5-0.4,2.6-1.4,2.7-2.5V9l11-2.4v8.7c-0.7-0.3-2-0.4-2.9-0.2c-1.8,0.5-2.9,1.9-2.6,3.2c0.3,1.3,2.1,2,3.8,1.5
	c1.5-0.4,2.6-1.5,2.6-2.7h0V2L8,5.1z"/>
</svg>
