<?xml version="1.0" encoding="utf-8"?>
<!-- Generator: Adobe Illustrator 19.0.0, SVG Export Plug-In . SVG Version: 6.00 Build 0)  -->
<svg version="1.1" id="music" xmlns="http://www.w3.org/2000/svg" xmlns:xlink="http://www.w3.org/1999/xlink" x="0px" y="0px"
	 viewBox="0 0 48 48" style="enable-background:new 0 0 48 48;" xml:space="preserve">
<path id="XMLID_122_" d="M41.9,4.1L16,10.1v24.4c-1.4-0.6-4-0.8-5.9-0.3c-3.5,0.9-5.8,3.8-5.1,6.4c0.7,2.6,4.1,3.9,7.6,3
	c3-0.8,5.2-2.8,5.3-5V18l22-4.9v17.4c-1.4-0.6-4-0.8-5.9-0.3c-3.5,0.9-5.8,3.8-5.1,6.4c0.7,2.6,4.1,3.9,7.6,3
	c3.1-0.8,5.2-3.1,5.2-5.4h0V4.1"/>
</svg>
