<?xml version="1.0" encoding="utf-8"?>
<!-- Generator: Adobe Illustrator 19.0.0, SVG Export Plug-In . SVG Version: 6.00 Build 0)  -->
<svg version="1.1" id="Layer_5" xmlns="http://www.w3.org/2000/svg" xmlns:xlink="http://www.w3.org/1999/xlink" x="0px" y="0px"
	 viewBox="0 0 18 18" style="enable-background:new 0 0 18 18;" xml:space="preserve">
<path id="XMLID_1_" d="M6.2,3.4V13c-0.6-0.2-1.6-0.3-2.3-0.1c-1.4,0.4-2.3,1.5-2,2.5c0.3,1,1.6,1.5,3,1.2c1.2-0.3,2-1.1,2.1-2V6.5
	l8.1-1.9v6.8c-0.6-0.3-1.6-0.3-2.3-0.1c-1.4,0.4-2.3,1.5-2,2.5c0.3,1,1.6,1.5,3,1.2c1.2-0.3,2-1.2,2.1-2.1h0V1L6.2,3.4z"/>
</svg>
