<?xml version="1.0" encoding="utf-8"?>
<!-- Generator: Adobe Illustrator 19.0.0, SVG Export Plug-In . SVG Version: 6.00 Build 0)  -->
<svg version="1.1" id="Layer_1" xmlns="http://www.w3.org/2000/svg" xmlns:xlink="http://www.w3.org/1999/xlink" x="0px" y="0px"
	 viewBox="0 0 418.8 101.9" style="enable-background:new 0 0 418.8 101.9;" xml:space="preserve">
<style type="text/css">
	.st0{fill:#404041;}
</style>
<g id="XMLID_40_">
	<path id="XMLID_64_" class="st0" d="M57.7,71.7c-0.6,0-1.1,0.5-1.1,1.1c0,1.3-1.1,2.4-2.4,2.4s-2.4-1.1-2.4-2.4v-3.9h2.4
		c0.9,0,1.6-0.7,1.6-1.6c0-0.9-0.7-1.6-1.6-1.6h-7.1c-0.9,0-1.6,0.7-1.6,1.6c0,0.9,0.7,1.6,1.6,1.6h2.6v3.9c0,1.3-1.1,2.4-2.4,2.4
		c-1.5,0-1.7-1.5-1.7-2.4c0-0.6-0.5-1.1-1.1-1.1s-1.1,0.5-1.1,1.1c0,2.7,1.5,4.5,3.8,4.5c1.4,0,2.6-0.6,3.4-1.6c0.8,1,2,1.6,3.4,1.6
		c2.5,0,4.5-2,4.5-4.5C58.8,72.2,58.3,71.7,57.7,71.7z"/>
	<path id="XMLID_41_" class="st0" d="M51,0C22.9,0,0,22.9,0,51c0,28.1,22.9,51,51,51c28.1,0,51-22.9,51-51C101.9,22.9,79,0,51,0z
		 M31.4,93.8c0.7-7.8,1.4-13,1.9-17.2c0.5-3.6,0.8-6.5,1-9.4c0.1-1.3,0.7-2.4,1.6-3.2c0.9-0.8,2-1.8,3.1-2.8
		c0.4,0.2,0.9,0.3,1.4,0.3c1.8,0,3.3-1.3,3.3-2.8c0-0.4-0.1-0.8-0.3-1.2c1.7-0.2,2.8-0.4,2.8-0.7c0-0.5-2.4-0.8-5.4-0.9
		c-0.1,0-0.3,0-0.4,0c-0.1,0-0.2,0-0.4,0c-1.2,0-2,0.1-2.4,0.2c-0.1-1.3,0.1-2.6,0.6-3.6c0.3-0.5,0-1.2-0.5-1.4
		c-0.5-0.3-1.2,0-1.4,0.5c-0.3,0.5-0.4,1.1-0.6,1.6c-2.7-1.2-5.3-7.2-5.3-15.4c0-5.7,1.3-11.1,3.5-13.8c0.3-0.4,0.7-0.3,0.8-0.3
		c0.1,0,0.5,0.2,0.5,0.8c0,7.6,1.8,14.6,4.8,18.5C39.5,44.1,39,45,39,45.2c-0.2,0.5,0,1.2,0.5,1.4c0.1,0.1,0.3,0.1,0.4,0.1
		c0.4,0,0.8-0.2,1-0.6c0.5-1,2-3.9,3.3-4.9c0.9-0.7,2.5-1,3.7-1c-0.4,0.6-0.7,1.1-0.8,1.2c-0.3,0.5-0.1,1.1,0.4,1.4
		c0.5,0.3,1.1,0.1,1.4-0.4c0.8-1.4,3.4-5.1,5.6-5.6c1.8-0.4,2.4-0.1,2.6,0.1c0.1,0.1,0.3,0.2,0.3,0.8c0,0.5,0,1-0.1,1.5
		c-0.1,0.6,0.1,1.2,0.5,1.6c0.4,0.4,1,0.6,1.6,0.6c3.8-0.4,5.8,0,6.1,0.3c0,1.3-1.9,2.8-2.5,3.3c-0.5,0.3-0.6,1-0.3,1.5
		c0.2,0.3,0.5,0.5,0.9,0.5c0.2,0,0.4-0.1,0.6-0.2c0.4-0.3,3.7-2.5,3.5-5.3c0-0.5-0.3-1-0.7-1.3c-0.6-0.5-1.5-0.8-2.9-0.9
		c1.7-4,2.7-9.3,2.7-14.9c0-0.5,0.4-0.7,0.5-0.8c0.2-0.1,0.5-0.1,0.8,0.3c2.2,2.8,3.5,8.1,3.5,13.8c0,8.4-2.8,14.4-5.5,15.5
		c-0.1-0.6-0.3-1.2-0.6-1.7c-0.3-0.5-0.9-0.7-1.4-0.5c-0.5,0.3-0.7,0.9-0.5,1.4c0.5,1,0.7,2.3,0.5,3.6c-0.4-0.1-1.2-0.2-2.4-0.2
		c-0.1,0-0.2,0-0.4,0c-0.2,0-0.3,0-0.4,0c-3,0-5.4,0.4-5.4,0.9c0,0.3,1.1,0.6,2.8,0.7c-0.2,0.4-0.3,0.8-0.3,1.2
		c0,1.6,1.5,2.8,3.3,2.8c0.9,0,1.6-0.3,2.2-0.7c1.3,1.2,2.6,2.3,3.5,3.2c0.9,0.8,1.5,2,1.6,3.2c0.2,3.1,0.6,6.3,1.1,10.3
		c0.5,4.3,1.2,8.7,1.9,15.7c-6.3,3.1-13.4,4.9-20.9,4.9C44,98.1,37.4,96.5,31.4,93.8z M73.8,92.1c-0.7-6.6-1.3-10.8-1.8-14.9
		c-0.5-4-0.9-7.1-1.1-10.2c-0.1-1.8-0.9-3.5-2.3-4.7c-0.9-0.8-2-1.7-3.1-2.8c0.6-1.3,0.9-2.8,0.9-4.2c4.2-1.1,7.4-8.4,7.4-17.6
		c0-6.3-1.5-11.9-4-15.1c-0.8-1-2-1.4-3.2-1c-1.2,0.4-2,1.5-2,2.8c0,5.7-1.1,11-2.9,14.8c-0.7,0-1.5,0.1-2.4,0.1
		c0.1-0.5,0.1-1.1,0.1-1.5c0-1-0.4-1.9-1.1-2.4c-1-0.8-2.5-1-4.4-0.5c-1.7,0.4-3.3,1.8-4.6,3.2c-0.1,0-0.1-0.1-0.2-0.1
		c-0.4,0-4.2-0.1-6.3,1.5c-0.5,0.4-1,0.9-1.5,1.5c-2.5-3.6-4-9.8-4-16.6c0-1.3-0.8-2.3-2-2.8c-1.2-0.4-2.4,0-3.2,1
		c-2.5,3.2-4,8.9-4,15.1c0,9.1,3.1,16.3,7.2,17.6c0,1.5,0.3,3.1,1,4.5c0.1,0.2,0.2,0.3,0.3,0.4c-0.9,0.8-1.6,1.4-2.3,2
		c-1.4,1.2-2.2,2.9-2.3,4.7c-0.2,2.9-0.6,5.7-1,9.3c-0.5,4.1-1.2,9.1-1.9,16.5C14.2,85,3.8,69.1,3.8,51C3.8,25,25,3.8,51,3.8
		S98.1,25,98.1,51C98.1,68.6,88.3,84.1,73.8,92.1z"/>
</g>
<g id="XMLID_39_">
	<path id="XMLID_11_" class="st0" d="M125.8,30.1c0-1,0.5-1.6,1.5-1.6h1.2c1,0,1.6,0.6,1.6,1.6v34.3c0,4,1.9,4.4,3.3,4.6
		c0.8,0.1,1.3,0.4,1.3,1.4v0.9c0,0.9-0.4,1.6-1.6,1.6c-2.6,0-7.2-0.8-7.2-7.7V30.1z"/>
	<path id="XMLID_13_" class="st0" d="M141.1,30.1c0-1,0.5-1.6,1.5-1.6h1.2c1,0,1.6,0.6,1.6,1.6v34.3c0,4,1.9,4.4,3.3,4.6
		c0.8,0.1,1.3,0.4,1.3,1.4v0.9c0,0.9-0.4,1.6-1.6,1.6c-2.6,0-7.2-0.8-7.2-7.7V30.1z"/>
	<path id="XMLID_20_" class="st0" d="M172.9,53.3h1.8v-1c0-6.1-3.3-8.2-7.8-8.2c-3.5,0-6.2,1.3-7.7,2.2c-0.9,0.4-1.6,0.3-2.1-0.5
		l-0.4-0.6c-0.5-0.8-0.4-1.6,0.4-2.1c1.6-1,5.1-2.8,10-2.8c7.5,0,11.7,4.2,11.7,12.1v18.6c0,1-0.5,1.6-1.5,1.6h-1
		c-1,0-1.6-0.5-1.6-1.6v-2.5c0-1.4,0.2-2.4,0.2-2.4H175c0.1,0-2.8,7.2-10.7,7.2c-5.3,0-10.7-3.1-10.7-9.2
		C153.6,53.9,166.8,53.3,172.9,53.3z M165,69.8c6.1,0,9.7-6.3,9.7-11.8v-1.5H173c-5,0-14.9,0.2-14.9,7.3
		C158,66.7,160.3,69.8,165,69.8z"/>
	<path id="XMLID_23_" class="st0" d="M188.2,42.6c0-1,0.6-1.6,1.6-1.6h1.1c0.9,0,1.5,0.6,1.5,1.6v3.6c0,1.3-0.3,2.3-0.3,2.3h0.1
		c1.6-4.3,6.7-8.2,11.6-8.2c5.8,0,8.8,2.7,9.7,7.9h0.1c1.8-4,6.3-7.9,11.6-7.9c7.7,0,10.5,4.5,10.5,12.2v18.5c0,1-0.6,1.6-1.6,1.6
		h-1.1c-1,0-1.6-0.6-1.6-1.6V53.6c0-5.1-1.1-9.4-6.8-9.4c-6.3,0-10.6,6.7-10.6,13.2v13.7c0,1-0.5,1.6-1.5,1.6h-1.2
		c-1,0-1.6-0.6-1.6-1.6V53.6c0-4.8-0.7-9.4-6.7-9.4c-6.4,0-10.8,6.8-10.8,13.2v13.7c0,1-0.5,1.6-1.5,1.6h-1.2c-1,0-1.6-0.6-1.6-1.6
		V42.6z"/>
	<path id="XMLID_25_" class="st0" d="M261.6,53.3h1.8v-1c0-6.1-3.3-8.2-7.8-8.2c-3.5,0-6.2,1.3-7.7,2.2c-0.9,0.4-1.6,0.3-2.1-0.5
		l-0.4-0.6c-0.5-0.8-0.4-1.6,0.4-2.1c1.6-1,5.1-2.8,10-2.8c7.5,0,11.7,4.2,11.7,12.1v18.6c0,1-0.5,1.6-1.5,1.6h-1
		c-1,0-1.6-0.5-1.6-1.6v-2.5c0-1.4,0.2-2.4,0.2-2.4h-0.1c0.1,0-2.8,7.2-10.7,7.2c-5.3,0-10.7-3.1-10.7-9.2
		C242.4,53.9,255.5,53.3,261.6,53.3z M253.8,69.8c6.1,0,9.7-6.3,9.7-11.8v-1.5h-1.8c-5,0-14.9,0.2-14.9,7.3
		C246.8,66.7,249.1,69.8,253.8,69.8z"/>
	<path id="XMLID_35_" class="st0" d="M276.8,32.3v-2.3c0-1,0.5-1.6,1.5-1.6h1.6c1,0,1.5,0.6,1.5,1.6v2.3c0,1-0.5,1.5-1.5,1.5h-1.6
		C277.3,33.8,276.8,33.3,276.8,32.3z M276.9,42.6c0-1,0.6-1.6,1.6-1.6h1.2c1,0,1.5,0.6,1.5,1.6v28.4c0,1-0.5,1.6-1.5,1.6h-1.2
		c-1,0-1.6-0.6-1.6-1.6V42.6z"/>
	<path id="XMLID_38_" class="st0" d="M305.4,40.3c5.4,0,8.9,2.3,10.5,3.6c0.8,0.6,0.8,1.3,0.2,2.1l-0.4,0.7
		c-0.6,0.9-1.3,0.9-2.1,0.3c-1.4-1.1-4.1-2.9-8-2.9c-6.9,0-12.3,5.2-12.3,12.7c0,7.5,5.4,12.7,12.4,12.7c4.4,0,7.4-2.1,8.9-3.3
		c0.8-0.6,1.5-0.5,2.1,0.4l0.4,0.6c0.5,0.8,0.3,1.5-0.4,2.1c-1.6,1.3-5.4,4-11.2,4c-9.4,0-16.6-6.7-16.6-16.5
		C288.8,47.2,296,40.3,305.4,40.3z"/>
	<path id="XMLID_44_" class="st0" d="M338.4,40.3c9.2,0,16.7,7,16.7,16.4c0,9.5-7.5,16.7-16.6,16.7c-9.2,0-16.7-7.2-16.7-16.7
		C321.7,47.3,329.2,40.3,338.4,40.3z M338.4,69.6c6.7,0,12.2-5.5,12.2-12.9c0-7.2-5.5-12.6-12.2-12.6c-6.8,0-12.3,5.4-12.3,12.6
		C326.1,64,331.7,69.6,338.4,69.6z"/>
	<path id="XMLID_47_" class="st0" d="M362.5,42.6c0-1,0.6-1.6,1.6-1.6h1.1c0.9,0,1.5,0.6,1.5,1.6v3.6c0,1.3-0.3,2.3-0.3,2.3h0.1
		c1.2-2.9,5.3-8.2,12.7-8.2c7.8,0,10.6,4.5,10.6,12.2v18.5c0,1-0.6,1.6-1.6,1.6h-1.2c-1,0-1.5-0.6-1.5-1.6V53.7c0-5-0.8-9.4-6.9-9.4
		c-6.7,0-12,5.5-12,12.9v13.9c0,1-0.5,1.6-1.5,1.6h-1.2c-1,0-1.6-0.6-1.6-1.6V42.6z"/>
	<path id="XMLID_49_" class="st0" d="M397.2,67.6l0.5-0.6c0.6-0.8,1.3-0.8,2.1-0.3c1.4,1.1,4.3,2.9,8.3,2.9c3.5,0,6.4-1.8,6.4-5.1
		c0-7.1-16.9-5-16.9-15.4c0-5.8,5-8.8,10.7-8.8c4.5,0,7.3,1.6,8.7,2.6c0.8,0.5,0.9,1.3,0.4,2.1l-0.4,0.7c-0.5,0.9-1.3,0.9-2.1,0.4
		c-1.2-0.8-3.5-2-6.8-2S402,45.5,402,49c0,7.3,16.8,5,16.8,15.5c0,5.2-4.4,8.9-10.7,8.9c-5.5,0-9.1-2.3-10.7-3.6
		C396.7,69.2,396.7,68.4,397.2,67.6z"/>
</g>
</svg>
