<?xml version="1.0" encoding="utf-8"?>
<!-- Generator: Adobe Illustrator 19.0.0, SVG Export Plug-In . SVG Version: 6.00 Build 0)  -->
<svg version="1.1" xmlns="http://www.w3.org/2000/svg" xmlns:xlink="http://www.w3.org/1999/xlink" x="0px" y="0px"
	 viewBox="0 0 48 48" style="enable-background:new 0 0 48 48;" xml:space="preserve">
<style type="text/css">
	.st0{fill:none;stroke:#E6E6E6;stroke-width:0.1;stroke-miterlimit:10;}
	.st1{fill:#999999;}
	.st2{fill:#E6E6E6;fill-opacity:0.3;stroke:#B3B3B3;stroke-width:0.1;stroke-miterlimit:10;}
	.st3{fill:#FFFFFF;fill-opacity:0.2;stroke:#B3B3B3;stroke-width:0.1;stroke-miterlimit:10;}
	.st4{fill:none;stroke:#B3B3B3;stroke-width:0.1;stroke-miterlimit:10;}
	.st5{opacity:0.2;}
	.st6{fill:#ED1E79;}
</style>
<g id="grid">
	<line id="XMLID_3_" class="st0" x1="0" y1="47" x2="48" y2="47"/>
	<line id="XMLID_4_" class="st0" x1="0" y1="46" x2="48" y2="46"/>
	<line id="XMLID_5_" class="st0" x1="0" y1="45" x2="48" y2="45"/>
	<line id="XMLID_6_" class="st0" x1="0" y1="44" x2="48" y2="44"/>
	<line id="XMLID_7_" class="st0" x1="0" y1="43" x2="48" y2="43"/>
	<line id="XMLID_8_" class="st0" x1="0" y1="42" x2="48" y2="42"/>
	<line id="XMLID_9_" class="st0" x1="0" y1="41" x2="48" y2="41"/>
	<line id="XMLID_10_" class="st0" x1="0" y1="40" x2="48" y2="40"/>
	<line id="XMLID_11_" class="st0" x1="0" y1="39" x2="48" y2="39"/>
	<line id="XMLID_12_" class="st0" x1="0" y1="38" x2="48" y2="38"/>
	<line id="XMLID_13_" class="st0" x1="0" y1="37" x2="48" y2="37"/>
	<line id="XMLID_14_" class="st0" x1="0" y1="36" x2="48" y2="36"/>
	<line id="XMLID_15_" class="st0" x1="0" y1="35" x2="48" y2="35"/>
	<line id="XMLID_16_" class="st0" x1="0" y1="34" x2="48" y2="34"/>
	<line id="XMLID_17_" class="st0" x1="0" y1="33" x2="48" y2="33"/>
	<line id="XMLID_18_" class="st0" x1="0" y1="32" x2="48" y2="32"/>
	<line id="XMLID_19_" class="st0" x1="0" y1="31" x2="48" y2="31"/>
	<line id="XMLID_20_" class="st0" x1="0" y1="30" x2="48" y2="30"/>
	<line id="XMLID_21_" class="st0" x1="0" y1="29" x2="48" y2="29"/>
	<line id="XMLID_22_" class="st0" x1="0" y1="28" x2="48" y2="28"/>
	<line id="XMLID_23_" class="st0" x1="0" y1="27" x2="48" y2="27"/>
	<line id="XMLID_24_" class="st0" x1="0" y1="26" x2="48" y2="26"/>
	<line id="XMLID_25_" class="st0" x1="0" y1="25" x2="48" y2="25"/>
	<line id="XMLID_26_" class="st0" x1="0" y1="24" x2="48" y2="24"/>
	<line id="XMLID_27_" class="st0" x1="0" y1="23" x2="48" y2="23"/>
	<line id="XMLID_28_" class="st0" x1="0" y1="22" x2="48" y2="22"/>
	<line id="XMLID_29_" class="st0" x1="0" y1="21" x2="48" y2="21"/>
	<line id="XMLID_30_" class="st0" x1="0" y1="20" x2="48" y2="20"/>
	<line id="XMLID_31_" class="st0" x1="0" y1="19" x2="48" y2="19"/>
	<line id="XMLID_32_" class="st0" x1="0" y1="18" x2="48" y2="18"/>
	<line id="XMLID_33_" class="st0" x1="0" y1="17" x2="48" y2="17"/>
	<line id="XMLID_34_" class="st0" x1="0" y1="16" x2="48" y2="16"/>
	<line id="XMLID_35_" class="st0" x1="0" y1="15" x2="48" y2="15"/>
	<line id="XMLID_36_" class="st0" x1="0" y1="14" x2="48" y2="14"/>
	<line id="XMLID_37_" class="st0" x1="0" y1="13" x2="48" y2="13"/>
	<line id="XMLID_38_" class="st0" x1="0" y1="12" x2="48" y2="12"/>
	<line id="XMLID_39_" class="st0" x1="0" y1="11" x2="48" y2="11"/>
	<line id="XMLID_40_" class="st0" x1="0" y1="10" x2="48" y2="10"/>
	<line id="XMLID_41_" class="st0" x1="0" y1="9" x2="48" y2="9"/>
	<line id="XMLID_42_" class="st0" x1="0" y1="8" x2="48" y2="8"/>
	<line id="XMLID_43_" class="st0" x1="0" y1="7" x2="48" y2="7"/>
	<line id="XMLID_44_" class="st0" x1="0" y1="6" x2="48" y2="6"/>
	<line id="XMLID_45_" class="st0" x1="0" y1="5" x2="48" y2="5"/>
	<line id="XMLID_46_" class="st0" x1="0" y1="4" x2="48" y2="4"/>
	<line id="XMLID_47_" class="st0" x1="0" y1="3" x2="48" y2="3"/>
	<line id="XMLID_48_" class="st0" x1="0" y1="2" x2="48" y2="2"/>
	<line id="XMLID_49_" class="st0" x1="0" y1="1" x2="48" y2="1"/>
	<line id="XMLID_50_" class="st0" x1="47" y1="0" x2="47" y2="48"/>
	<line id="XMLID_51_" class="st0" x1="46" y1="0" x2="46" y2="48"/>
	<line id="XMLID_52_" class="st0" x1="45" y1="0" x2="45" y2="48"/>
	<line id="XMLID_53_" class="st0" x1="44" y1="0" x2="44" y2="48"/>
	<line id="XMLID_54_" class="st0" x1="43" y1="0" x2="43" y2="48"/>
	<line id="XMLID_55_" class="st0" x1="42" y1="0" x2="42" y2="48"/>
	<line id="XMLID_56_" class="st0" x1="41" y1="0" x2="41" y2="48"/>
	<line id="XMLID_57_" class="st0" x1="40" y1="0" x2="40" y2="48"/>
	<line id="XMLID_58_" class="st0" x1="39" y1="0" x2="39" y2="48"/>
	<line id="XMLID_59_" class="st0" x1="38" y1="0" x2="38" y2="48"/>
	<line id="XMLID_60_" class="st0" x1="37" y1="0" x2="37" y2="48"/>
	<line id="XMLID_61_" class="st0" x1="36" y1="0" x2="36" y2="48"/>
	<line id="XMLID_62_" class="st0" x1="35" y1="0" x2="35" y2="48"/>
	<line id="XMLID_63_" class="st0" x1="34" y1="0" x2="34" y2="48"/>
	<line id="XMLID_64_" class="st0" x1="33" y1="0" x2="33" y2="48"/>
	<line id="XMLID_65_" class="st0" x1="32" y1="0" x2="32" y2="48"/>
	<line id="XMLID_66_" class="st0" x1="31" y1="0" x2="31" y2="48"/>
	<line id="XMLID_67_" class="st0" x1="30" y1="0" x2="30" y2="48"/>
	<line id="XMLID_68_" class="st0" x1="29" y1="0" x2="29" y2="48"/>
	<line id="XMLID_69_" class="st0" x1="28" y1="0" x2="28" y2="48"/>
	<line id="XMLID_70_" class="st0" x1="27" y1="0" x2="27" y2="48"/>
	<line id="XMLID_71_" class="st0" x1="26" y1="0" x2="26" y2="48"/>
	<line id="XMLID_72_" class="st0" x1="25" y1="0" x2="25" y2="48"/>
	<line id="XMLID_73_" class="st0" x1="24" y1="0" x2="24" y2="48"/>
	<line id="XMLID_74_" class="st0" x1="23" y1="0" x2="23" y2="48"/>
	<line id="XMLID_75_" class="st0" x1="22" y1="0" x2="22" y2="48"/>
	<line id="XMLID_76_" class="st0" x1="21" y1="0" x2="21" y2="48"/>
	<line id="XMLID_77_" class="st0" x1="20" y1="0" x2="20" y2="48"/>
	<line id="XMLID_78_" class="st0" x1="19" y1="0" x2="19" y2="48"/>
	<line id="XMLID_79_" class="st0" x1="18" y1="0" x2="18" y2="48"/>
	<line id="XMLID_80_" class="st0" x1="17" y1="0" x2="17" y2="48"/>
	<line id="XMLID_81_" class="st0" x1="16" y1="0" x2="16" y2="48"/>
	<line id="XMLID_82_" class="st0" x1="15" y1="0" x2="15" y2="48"/>
	<line id="XMLID_83_" class="st0" x1="14" y1="0" x2="14" y2="48"/>
	<line id="XMLID_84_" class="st0" x1="13" y1="0" x2="13" y2="48"/>
	<line id="XMLID_85_" class="st0" x1="12" y1="0" x2="12" y2="48"/>
	<line id="XMLID_86_" class="st0" x1="11" y1="0" x2="11" y2="48"/>
	<line id="XMLID_87_" class="st0" x1="10" y1="0" x2="10" y2="48"/>
	<line id="XMLID_88_" class="st0" x1="9" y1="0" x2="9" y2="48"/>
	<line id="XMLID_89_" class="st0" x1="8" y1="0" x2="8" y2="48"/>
	<line id="XMLID_90_" class="st0" x1="7" y1="0" x2="7" y2="48"/>
	<line id="XMLID_91_" class="st0" x1="6" y1="0" x2="6" y2="48"/>
	<line id="XMLID_92_" class="st0" x1="5" y1="0" x2="5" y2="48"/>
	<line id="XMLID_93_" class="st0" x1="4" y1="0" x2="4" y2="48"/>
	<line id="XMLID_94_" class="st0" x1="3" y1="0" x2="3" y2="48"/>
	<line id="XMLID_95_" class="st0" x1="2" y1="0" x2="2" y2="48"/>
	<line id="XMLID_96_" class="st0" x1="1" y1="0" x2="1" y2="48"/>
</g>
<g id="border">
	<g id="XMLID_2_">
		<path id="XMLID_108_" class="st1" d="M47.9,0.1v47.8H0.1V0.1H47.9 M48,0H0v48h48V0L48,0z"/>
	</g>
</g>
<g id="keyline">
	<circle id="XMLID_97_" class="st2" cx="24" cy="24" r="20"/>
	<circle id="XMLID_121_" class="st3" cx="24" cy="24" r="8"/>
	<path id="XMLID_98_" class="st4" d="M40,42H8c-1.1,0-2-0.9-2-2V8c0-1.1,0.9-2,2-2h32c1.1,0,2,0.9,2,2v32C42,41.1,41.1,42,40,42z"/>
	<path id="XMLID_99_" class="st4" d="M42,40H6c-1.1,0-2-0.9-2-2V10c0-1.1,0.9-2,2-2h36c1.1,0,2,0.9,2,2v28C44,39.1,43.1,40,42,40z"
		/>
	<path id="XMLID_100_" class="st4" d="M38,44H10c-1.1,0-2-0.9-2-2V6c0-1.1,0.9-2,2-2h28c1.1,0,2,0.9,2,2v36C40,43.1,39.1,44,38,44z"
		/>
	<line id="XMLID_101_" class="st4" x1="0" y1="0" x2="48" y2="48"/>
	<line id="XMLID_102_" class="st4" x1="0" y1="48" x2="48" y2="0"/>
	<line id="XMLID_103_" class="st4" x1="0" y1="16" x2="48" y2="16"/>
	<line id="XMLID_105_" class="st4" x1="0" y1="24" x2="48" y2="24"/>
	<line id="XMLID_106_" class="st4" x1="0" y1="32" x2="48" y2="32"/>
	<line id="XMLID_107_" class="st4" x1="24" y1="0" x2="24" y2="48"/>
	<line id="XMLID_111_" class="st4" x1="16" y1="0" x2="16" y2="48"/>
	<line id="XMLID_120_" class="st4" x1="32" y1="0" x2="32" y2="48"/>
</g>
<g id="gutter">
	<g id="XMLID_1_">
		<g id="XMLID_115_" class="st5">
			<path id="XMLID_116_" class="st6" d="M44,4v40H4V4H44 M48,0H0v48h48V0L48,0z"/>
		</g>
	</g>
</g>
</svg>
