<?xml version="1.0" encoding="utf-8"?>
<!-- Generator: Adobe Illustrator 19.0.0, SVG Export Plug-In . SVG Version: 6.00 Build 0)  -->
<svg version="1.1" xmlns="http://www.w3.org/2000/svg" xmlns:xlink="http://www.w3.org/1999/xlink" x="0px" y="0px"
	 viewBox="0 0 24 24" style="enable-background:new 0 0 24 24;" xml:space="preserve">
<style type="text/css">
	.st0{fill:none;stroke:#E6E6E6;stroke-width:0.1;stroke-miterlimit:10;}
	.st1{fill:#808080;}
	.st2{fill:#E6E6E6;fill-opacity:0.6;stroke:#B3B3B3;stroke-width:0.1;stroke-miterlimit:10;}
	.st3{fill:#FFFFFF;fill-opacity:0.6;stroke:#B3B3B3;stroke-width:0.1;stroke-miterlimit:10;}
	.st4{fill:none;stroke:#B3B3B3;stroke-width:0.1;stroke-miterlimit:10;}
	.st5{opacity:0.2;}
	.st6{fill:#ED1E79;}
</style>
<g id="grid">
	<line id="XMLID_3_" class="st0" x1="0" y1="23" x2="24" y2="23"/>
	<line id="XMLID_4_" class="st0" x1="0" y1="22" x2="24" y2="22"/>
	<line id="XMLID_5_" class="st0" x1="0" y1="21" x2="24" y2="21"/>
	<line id="XMLID_6_" class="st0" x1="0" y1="20" x2="24" y2="20"/>
	<line id="XMLID_7_" class="st0" x1="0" y1="19" x2="24" y2="19"/>
	<line id="XMLID_8_" class="st0" x1="0" y1="18" x2="24" y2="18"/>
	<line id="XMLID_9_" class="st0" x1="0" y1="17" x2="24" y2="17"/>
	<line id="XMLID_10_" class="st0" x1="0" y1="16" x2="24" y2="16"/>
	<line id="XMLID_11_" class="st0" x1="0" y1="15" x2="24" y2="15"/>
	<line id="XMLID_12_" class="st0" x1="0" y1="14" x2="24" y2="14"/>
	<line id="XMLID_13_" class="st0" x1="0" y1="13" x2="24" y2="13"/>
	<line id="XMLID_14_" class="st0" x1="0" y1="12" x2="24" y2="12"/>
	<line id="XMLID_15_" class="st0" x1="0" y1="11" x2="24" y2="11"/>
	<line id="XMLID_16_" class="st0" x1="0" y1="10" x2="24" y2="10"/>
	<line id="XMLID_17_" class="st0" x1="0" y1="9" x2="24" y2="9"/>
	<line id="XMLID_18_" class="st0" x1="0" y1="8" x2="24" y2="8"/>
	<line id="XMLID_19_" class="st0" x1="0" y1="7" x2="24" y2="7"/>
	<line id="XMLID_20_" class="st0" x1="0" y1="6" x2="24" y2="6"/>
	<line id="XMLID_21_" class="st0" x1="0" y1="5" x2="24" y2="5"/>
	<line id="XMLID_22_" class="st0" x1="0" y1="4" x2="24" y2="4"/>
	<line id="XMLID_23_" class="st0" x1="0" y1="3" x2="24" y2="3"/>
	<line id="XMLID_24_" class="st0" x1="0" y1="2" x2="24" y2="2"/>
	<line id="XMLID_25_" class="st0" x1="0" y1="1" x2="24" y2="1"/>
	<line id="XMLID_26_" class="st0" x1="23" y1="0" x2="23" y2="24"/>
	<line id="XMLID_27_" class="st0" x1="22" y1="0" x2="22" y2="24"/>
	<line id="XMLID_28_" class="st0" x1="21" y1="0" x2="21" y2="24"/>
	<line id="XMLID_29_" class="st0" x1="20" y1="0" x2="20" y2="24"/>
	<line id="XMLID_30_" class="st0" x1="19" y1="0" x2="19" y2="24"/>
	<line id="XMLID_31_" class="st0" x1="18" y1="0" x2="18" y2="24"/>
	<line id="XMLID_32_" class="st0" x1="17" y1="0" x2="17" y2="24"/>
	<line id="XMLID_33_" class="st0" x1="16" y1="0" x2="16" y2="24"/>
	<line id="XMLID_34_" class="st0" x1="15" y1="0" x2="15" y2="24"/>
	<line id="XMLID_35_" class="st0" x1="14" y1="0" x2="14" y2="24"/>
	<line id="XMLID_36_" class="st0" x1="13" y1="0" x2="13" y2="24"/>
	<line id="XMLID_37_" class="st0" x1="12" y1="0" x2="12" y2="24"/>
	<line id="XMLID_38_" class="st0" x1="11" y1="0" x2="11" y2="24"/>
	<line id="XMLID_39_" class="st0" x1="10" y1="0" x2="10" y2="24"/>
	<line id="XMLID_40_" class="st0" x1="9" y1="0" x2="9" y2="24"/>
	<line id="XMLID_41_" class="st0" x1="8" y1="0" x2="8" y2="24"/>
	<line id="XMLID_42_" class="st0" x1="7" y1="0" x2="7" y2="24"/>
	<line id="XMLID_43_" class="st0" x1="6" y1="0" x2="6" y2="24"/>
	<line id="XMLID_44_" class="st0" x1="5" y1="0" x2="5" y2="24"/>
	<line id="XMLID_45_" class="st0" x1="4" y1="0" x2="4" y2="24"/>
	<line id="XMLID_46_" class="st0" x1="3" y1="0" x2="3" y2="24"/>
	<line id="XMLID_47_" class="st0" x1="2" y1="0" x2="2" y2="24"/>
	<line id="XMLID_48_" class="st0" x1="1" y1="0" x2="1" y2="24"/>
</g>
<g id="border">
	<g id="XMLID_2_">
		<path id="XMLID_60_" class="st1" d="M23.9,0.1v23.8H0.1V0.1H23.9 M24,0H0v24h24V0L24,0z"/>
	</g>
</g>
<g id="keyline">
	<circle id="XMLID_52_" class="st2" cx="12" cy="12" r="10"/>
	<path id="XMLID_65_" class="st3" d="M12,16L12,16c-2.2,0-4-1.8-4-4v0c0-2.2,1.8-4,4-4h0c2.2,0,4,1.8,4,4v0C16,14.2,14.2,16,12,16z"
		/>
	<path id="XMLID_49_" class="st4" d="M21,20H3c-0.6,0-1-0.4-1-1V5c0-0.6,0.4-1,1-1h18c0.6,0,1,0.4,1,1v14C22,19.6,21.6,20,21,20z"/>
	<path id="XMLID_50_" class="st4" d="M19,22H5c-0.6,0-1-0.4-1-1V3c0-0.6,0.4-1,1-1h14c0.6,0,1,0.4,1,1v18C20,21.6,19.6,22,19,22z"/>
	<path id="XMLID_51_" class="st4" d="M20,21H4c-0.6,0-1-0.4-1-1V4c0-0.6,0.4-1,1-1h16c0.6,0,1,0.4,1,1v16C21,20.6,20.6,21,20,21z"/>
	<line id="XMLID_53_" class="st4" x1="0" y1="0" x2="24" y2="24"/>
	<line id="XMLID_54_" class="st4" x1="0" y1="24" x2="24" y2="0"/>
	<line id="XMLID_55_" class="st4" x1="0" y1="8" x2="24" y2="8"/>
	<line id="XMLID_57_" class="st4" x1="0" y1="12" x2="24" y2="12"/>
	<line id="XMLID_58_" class="st4" x1="0" y1="16" x2="24" y2="16"/>
	<line id="XMLID_59_" class="st4" x1="8" y1="0" x2="8" y2="24"/>
	<line id="XMLID_63_" class="st4" x1="12" y1="24" x2="12" y2="0"/>
	<line id="XMLID_64_" class="st4" x1="16" y1="0" x2="16" y2="24"/>
</g>
<g id="gutter">
	<g id="XMLID_1_">
		<g id="XMLID_67_" class="st5">
			<path id="XMLID_68_" class="st6" d="M22,2v20H2V2H22 M24,0H0v24h24V0L24,0z"/>
		</g>
	</g>
</g>
</svg>
